<?xml version="1.0" encoding="UTF-8"?>
<svg version="1.1" xmlns="http://www.w3.org/2000/svg" width="100" height="100">
<path d="M0 0 C14.917372 13.18392942 14.917372 13.18392942 15.73046875 19.984375 C14.79669907 28.47319031 5.71683583 36.77399061 -0.61328125 42.109375 C-12.82021295 51.19014127 -25.45668748 55.10506364 -40.61328125 54.109375 C-59.31044778 51.25890258 -72.32695767 40.43713899 -83.28515625 25.71484375 C-84.91644003 22.51464881 -85.11585159 20.65994139 -84.61328125 17.109375 C-82.42457226 13.39555495 -79.4933286 10.30722068 -76.61328125 7.109375 C-75.989375 6.40296875 -75.36546875 5.6965625 -74.72265625 4.96875 C-53.55311671 -17.62395186 -23.654931 -19.75576655 0 0 Z M-52.61328125 6.109375 C-53.17015625 6.728125 -53.72703125 7.346875 -54.30078125 7.984375 C-58.11103605 14.15335896 -57.98999587 20.23717971 -56.61328125 27.109375 C-54.32222374 33.18067739 -50.06512128 37.64002225 -44.61328125 41.109375 C-37.61741751 44.06318413 -31.67439529 43.56992597 -24.6875 41.01953125 C-18.26276827 38.20039285 -14.86989805 33.22099754 -12.30078125 26.859375 C-11.01450557 19.84332582 -11.66051816 13.17968975 -15.61328125 7.109375 C-21.2297746 0.91683105 -25.96244958 -2.43316615 -34.42578125 -3.265625 C-41.8471337 -3.05236775 -47.8792323 0.53990565 -52.61328125 6.109375 Z " fill="#000000" transform="translate(84.61328125,29.890625)"/>
<path d="M0 0 C3.125 1.875 3.125 1.875 5 5 C5.98876625 10.02622846 5.7769173 13.70513784 3.125 18.125 C-1.29486216 20.7769173 -4.97377154 20.98876625 -10 20 C-13.125 18.125 -13.125 18.125 -15 15 C-15.98876625 9.97377154 -15.7769173 6.29486216 -13.125 1.875 C-8.70513784 -0.7769173 -5.02622846 -0.98876625 0 0 Z " fill="#000000" transform="translate(55,40)"/>
</svg>
