<svg xmlns="http://www.w3.org/2000/svg" xmlns:xlink="http://www.w3.org/1999/xlink" width="96" zoomAndPan="magnify" viewBox="0 0 72 72" height="96" preserveAspectRatio="xMidYMid meet" version="1.0"><defs><clipPath id="052d32572b"><path d="M 0 11 L 72 11 L 72 61 L 0 61 Z M 0 11 " clip-rule="nonzero"/></clipPath><clipPath id="b6dd25134e"><rect x="0" width="72" y="0" height="72"/></clipPath></defs><g transform="matrix(1, 0, 0, 1, 0, -0.000000000000001479)"><g clip-path="url(#b6dd25134e)"><g clip-path="url(#052d32572b)"><path fill="#fcf1e4" d="M 60.921875 21.519531 C 71.660156 31.015625 71.660156 31.015625 72.246094 35.910156 C 71.574219 42.023438 65.039062 48 60.480469 51.839844 C 51.691406 58.378906 42.59375 61.195312 31.679688 60.480469 C 18.21875 58.425781 8.847656 50.636719 0.957031 40.035156 C -0.21875 37.730469 -0.363281 36.394531 0 33.839844 C 1.574219 31.167969 3.6875 28.941406 5.761719 26.640625 C 6.210938 26.132812 6.660156 25.621094 7.121094 25.097656 C 22.363281 8.832031 43.890625 7.296875 60.921875 21.519531 Z M 23.039062 25.921875 C 22.640625 26.367188 22.238281 26.8125 21.824219 27.269531 C 19.082031 31.710938 19.167969 36.09375 20.160156 41.039062 C 21.808594 45.410156 24.875 48.621094 28.800781 51.121094 C 33.835938 53.246094 38.117188 52.890625 43.148438 51.054688 C 47.773438 49.027344 50.214844 45.441406 52.066406 40.859375 C 52.992188 35.808594 52.527344 31.011719 49.679688 26.640625 C 45.636719 22.179688 42.230469 19.769531 36.136719 19.171875 C 30.792969 19.324219 26.449219 21.910156 23.039062 25.921875 Z M 23.039062 25.921875 " fill-opacity="1" fill-rule="nonzero"/></g><path fill="#fcf1e4" d="M 39.601562 28.800781 C 41.851562 30.148438 41.851562 30.148438 43.199219 32.398438 C 43.910156 36.019531 43.757812 38.667969 41.851562 41.851562 C 38.667969 43.757812 36.019531 43.910156 32.398438 43.199219 C 30.148438 41.851562 30.148438 41.851562 28.800781 39.601562 C 28.089844 35.980469 28.242188 33.332031 30.148438 30.148438 C 33.332031 28.242188 35.980469 28.089844 39.601562 28.800781 Z M 39.601562 28.800781 " fill-opacity="1" fill-rule="nonzero"/></g></g></svg>