<svg xmlns="http://www.w3.org/2000/svg" xmlns:xlink="http://www.w3.org/1999/xlink" width="96" zoomAndPan="magnify" viewBox="0 0 72 72" height="96" preserveAspectRatio="xMidYMid meet" version="1.0"><defs><clipPath id="74ff6a41db"><rect x="0" width="72" y="0" height="72"/></clipPath></defs><g transform="matrix(1, 0, 0, 1, 0, -0.000000000000001479)"><g clip-path="url(#74ff6a41db)"><path fill="#fcf1e4" d="M 10.339844 27.128906 C 11.261719 27.675781 11.816406 28.503906 12.3125 29.433594 C 13.71875 31.96875 15.582031 34.246094 17.550781 36.359375 C 17.636719 36.449219 17.71875 36.542969 17.804688 36.632812 C 18.398438 37.261719 19.027344 37.832031 19.6875 38.390625 C 19.769531 38.460938 19.847656 38.527344 19.929688 38.597656 C 24.863281 42.773438 31.082031 45.25 37.601562 44.8125 C 40.984375 44.527344 44.289062 43.578125 47.25 41.90625 C 47.335938 41.859375 47.421875 41.808594 47.511719 41.761719 C 49.523438 40.640625 51.332031 39.257812 53.015625 37.6875 C 53.246094 37.484375 53.476562 37.28125 53.710938 37.082031 C 56.253906 34.777344 58.359375 31.855469 60.019531 28.863281 C 60.5 28.019531 61.097656 27.363281 62.015625 27 C 63.054688 26.878906 64.023438 26.839844 64.882812 27.492188 C 65.65625 28.210938 66.039062 28.847656 66.144531 29.917969 C 66.019531 33.265625 62.160156 37.203125 60.011719 39.503906 C 59.738281 39.792969 59.738281 39.792969 59.625 40.21875 C 59.6875 40.277344 59.746094 40.335938 59.808594 40.398438 C 60.441406 41.015625 61.074219 41.636719 61.703125 42.261719 C 61.941406 42.492188 62.175781 42.722656 62.414062 42.953125 C 62.753906 43.285156 63.089844 43.621094 63.429688 43.953125 C 63.585938 44.105469 63.585938 44.105469 63.75 44.261719 C 64.535156 45.046875 65.027344 45.816406 65.03125 46.96875 C 65 47.808594 64.75 48.4375 64.167969 49.042969 C 63.464844 49.671875 62.945312 49.964844 61.980469 49.976562 C 61.828125 49.980469 61.675781 49.984375 61.519531 49.988281 C 60.296875 49.824219 59.546875 49.078125 58.71875 48.226562 C 58.613281 48.121094 58.503906 48.011719 58.394531 47.898438 C 58.050781 47.554688 57.714844 47.210938 57.375 46.863281 C 57.144531 46.628906 56.910156 46.394531 56.679688 46.160156 C 56.113281 45.585938 55.546875 45.011719 54.984375 44.4375 C 54.785156 44.570312 54.582031 44.703125 54.382812 44.839844 C 54.214844 44.949219 54.214844 44.949219 54.042969 45.0625 C 53.773438 45.246094 53.507812 45.425781 53.242188 45.613281 C 52.195312 46.339844 51.113281 46.980469 49.992188 47.59375 C 49.796875 47.699219 49.796875 47.699219 49.59375 47.808594 C 48.917969 48.171875 48.242188 48.507812 47.53125 48.796875 C 47.570312 48.910156 47.609375 49.027344 47.652344 49.144531 C 47.800781 49.578125 47.953125 50.011719 48.101562 50.445312 C 48.164062 50.632812 48.230469 50.820312 48.292969 51.003906 C 48.449219 51.457031 48.605469 51.90625 48.757812 52.355469 C 48.875 52.6875 48.988281 53.019531 49.105469 53.351562 C 49.527344 54.558594 49.8125 55.785156 49.289062 57.015625 C 48.867188 57.730469 48.171875 58.238281 47.390625 58.5 C 46.175781 58.585938 45.328125 58.570312 44.359375 57.789062 C 43.414062 56.648438 43.003906 55.167969 42.539062 53.78125 C 42.421875 53.441406 42.308594 53.105469 42.191406 52.765625 C 42.117188 52.546875 42.042969 52.332031 41.96875 52.117188 C 41.933594 52.015625 41.898438 51.914062 41.863281 51.808594 C 41.726562 51.398438 41.625 51.0625 41.625 50.625 C 41.507812 50.644531 41.507812 50.644531 41.386719 50.664062 C 37.703125 51.242188 34.054688 51.222656 30.375 50.625 C 30.332031 50.863281 30.332031 50.863281 30.285156 51.109375 C 30.066406 52.085938 29.722656 53.023438 29.390625 53.96875 C 29.277344 54.289062 29.164062 54.613281 29.054688 54.933594 C 28.09375 57.6875 28.09375 57.6875 26.859375 58.359375 C 25.96875 58.65625 24.839844 58.667969 23.976562 58.269531 C 23.230469 57.824219 22.78125 57.214844 22.5 56.390625 C 22.214844 54.707031 22.910156 53.183594 23.484375 51.636719 C 23.578125 51.375 23.675781 51.109375 23.769531 50.847656 C 24 50.210938 24.234375 49.574219 24.46875 48.9375 C 23.96875 48.546875 23.4375 48.273438 22.867188 47.996094 C 21.203125 47.175781 19.644531 46.269531 18.148438 45.167969 C 17.78125 44.902344 17.40625 44.667969 17.015625 44.4375 C 16.957031 44.496094 16.898438 44.558594 16.835938 44.621094 C 16.21875 45.25 15.597656 45.882812 14.972656 46.507812 C 14.742188 46.742188 14.511719 46.980469 14.28125 47.214844 C 13.949219 47.554688 13.613281 47.890625 13.28125 48.226562 C 13.179688 48.332031 13.078125 48.4375 12.972656 48.546875 C 12.238281 49.277344 11.550781 49.824219 10.5 50 C 9.332031 50 8.636719 49.828125 7.800781 49.007812 C 7.234375 48.375 6.992188 47.769531 6.976562 46.925781 C 6.972656 46.800781 6.96875 46.675781 6.964844 46.546875 C 7.144531 45.378906 7.878906 44.636719 8.695312 43.84375 C 8.800781 43.738281 8.90625 43.636719 9.015625 43.527344 C 9.347656 43.195312 9.683594 42.867188 10.019531 42.539062 C 10.246094 42.3125 10.476562 42.089844 10.703125 41.863281 C 11.257812 41.3125 11.816406 40.765625 12.375 40.21875 C 12.027344 39.691406 11.6875 39.21875 11.25 38.761719 C 9.503906 36.847656 8.027344 34.652344 6.75 32.40625 C 6.699219 32.3125 6.644531 32.222656 6.589844 32.125 C 6.039062 31.136719 5.679688 30.191406 5.996094 29.066406 C 6.355469 28.160156 6.890625 27.636719 7.707031 27.121094 C 8.492188 26.8125 9.550781 26.84375 10.339844 27.128906 Z M 10.339844 27.128906 " fill-opacity="1" fill-rule="nonzero"/></g></g></svg>