<?xml version="1.0" encoding="UTF-8"?>
<svg version="1.1" xmlns="http://www.w3.org/2000/svg" width="512" height="512">
<path d="M0 0 C6.55600053 3.89850127 10.50712465 9.79735532 14.04296875 16.40234375 C24.03193067 34.41983979 37.29164353 50.62050417 51.29296875 65.65234375 C51.89085205 66.29502197 52.48873535 66.9377002 53.10473633 67.59985352 C57.32682155 72.05717835 61.79654097 76.12408303 66.48046875 80.08984375 C67.0520874 80.57831787 67.62370605 81.06679199 68.21264648 81.57006836 C103.28339303 111.24293822 147.51738153 128.87937865 193.86987305 125.76269531 C217.9310902 123.718224 241.42565567 116.97862575 262.48046875 105.08984375 C263.09647949 104.74872559 263.71249023 104.40760742 264.34716797 104.05615234 C278.64950054 96.07820793 291.51995069 86.25299394 303.48046875 75.08984375 C305.12615345 73.65217359 306.77199003 72.21467728 308.41796875 70.77734375 C326.51497327 54.39983655 341.48034174 33.62361937 353.29296875 12.33984375 C356.70393465 6.333216 360.9602825 1.67721925 367.48046875 -0.91015625 C374.86250861 -1.77381855 381.76454531 -2.03749099 387.8671875 2.6015625 C393.38028144 7.68749178 396.09571116 12.24226786 396.85546875 19.83984375 C395.96211348 43.64776159 368.51052497 71.65492251 353.23046875 87.99609375 C351.28628844 90.06277733 351.28628844 90.06277733 350.48046875 93.08984375 C350.91228958 93.51056152 351.34411041 93.9312793 351.78901672 94.36474609 C356.29770439 98.76246082 360.78841049 103.17795935 365.26928711 107.60400391 C366.94186106 109.25149815 368.61890366 110.89446888 370.30053711 112.53271484 C372.72279619 114.8940411 375.12829633 117.27139357 377.53125 119.65234375 C378.65639763 120.73878174 378.65639763 120.73878174 379.80427551 121.84716797 C385.38614939 127.42603254 388.90411807 132.8902441 388.91796875 141.08984375 C388.6984301 147.05397698 386.93859002 151.52335982 382.796875 155.84765625 C377.78205016 160.31246804 374.08041214 162.38368328 367.23046875 162.46484375 C366.1528125 162.49320313 365.07515625 162.5215625 363.96484375 162.55078125 C355.25192701 161.39817567 349.91599744 156.08340163 344.04296875 150.04296875 C343.27742676 149.27176697 342.51188477 148.50056519 341.72314453 147.70599365 C339.29930043 145.25990165 336.88980053 142.80022274 334.48046875 140.33984375 C332.83165981 138.67095504 331.18192926 137.00297632 329.53125 135.3359375 C325.50360017 131.26437409 321.48761066 127.18158685 317.48046875 123.08984375 C316.05075148 124.04044103 314.62137426 124.99154976 313.19213867 125.94287109 C311.99810677 126.73726089 311.99810677 126.73726089 310.779953 127.54769897 C308.87113345 128.8278452 306.97704752 130.12418793 305.09375 131.44140625 C297.6353043 136.6072785 289.94684678 141.18373156 281.98046875 145.52734375 C280.58308472 146.28942139 280.58308472 146.28942139 279.1574707 147.06689453 C274.34543667 149.65488651 269.54484668 152.03765764 264.48046875 154.08984375 C264.76245117 154.90549805 265.04443359 155.72115234 265.33496094 156.56152344 C266.40156337 159.64776945 267.46757095 162.73421969 268.53320312 165.82080078 C268.99065487 167.14542469 269.4483296 168.46997162 269.90625 169.79443359 C271.01350362 172.99721324 272.11759709 176.20100365 273.21484375 179.40722656 C274.0267853 181.76975095 274.8488273 184.1288421 275.68359375 186.48339844 C278.67296994 195.05917139 280.70858004 203.78958292 276.98046875 212.52734375 C273.96809311 217.62354914 269.04271874 221.23576042 263.48046875 223.08984375 C254.8418294 223.68958907 248.81684372 223.58009677 241.91796875 218.02734375 C235.19208271 209.92178878 232.29417926 199.38465102 228.97631836 189.54663086 C228.16047697 187.13015351 227.33200943 184.71826762 226.50195312 182.30664062 C225.97712304 180.76717969 225.45300786 179.2274748 224.9296875 177.6875 C224.68288742 176.96877213 224.43608734 176.25004425 224.18180847 175.50953674 C223.19801236 172.57618553 222.48046875 170.20659481 222.48046875 167.08984375 C221.64128906 167.22616211 221.64128906 167.22616211 220.78515625 167.36523438 C194.60168295 171.46955696 168.63840771 171.33900204 142.48046875 167.08984375 C142.16529297 168.78947266 142.16529297 168.78947266 141.84375 170.5234375 C140.29451416 177.47527627 137.84763736 184.15111207 135.47729492 190.85571289 C134.66988819 193.14689694 133.87858012 195.44323602 133.08789062 197.74023438 C126.25601356 217.32052592 126.25601356 217.32052592 117.48046875 222.08984375 C111.13669612 224.20443463 103.11895304 224.29347609 96.98046875 221.46484375 C91.66720971 218.29258149 88.47148149 213.94383061 86.48046875 208.08984375 C84.4460306 196.10488759 89.39003574 185.28876588 93.48046875 174.27734375 C94.15683998 172.41018952 94.83133482 170.54235445 95.50390625 168.67382812 C97.14123556 164.13769524 98.80367099 159.61152769 100.48046875 155.08984375 C96.914873 152.31752244 93.15948958 150.35728913 89.10546875 148.40234375 C77.25883545 142.56131412 66.17361621 136.12853624 55.5390625 128.2890625 C52.91186047 126.40002707 50.26361399 124.73230263 47.48046875 123.08984375 C47.05975098 123.51944397 46.6390332 123.94904419 46.20556641 124.3916626 C41.8047998 128.88126916 37.38974196 133.35645733 32.96630859 137.82373047 C31.31973329 139.49035835 29.67677373 141.16056688 28.03759766 142.83447266 C25.6739299 145.24693501 23.29734061 147.64600576 20.91796875 150.04296875 C20.19367676 150.78790588 19.46938477 151.53284302 18.72314453 152.300354 C13.51038711 157.51536089 8.61010922 161.39031353 1.13671875 162.65625 C-7.14752993 162.64599722 -12.10346541 161.41532363 -18.04296875 155.59765625 C-22.07664138 151.09766309 -23.80775894 146.77331054 -23.89453125 140.77734375 C-23.92289063 139.89433594 -23.95125 139.01132812 -23.98046875 138.1015625 C-22.70723988 129.78241458 -17.48240196 124.49674306 -11.69140625 118.87109375 C-10.94240051 118.1277478 -10.19339478 117.38440186 -9.42169189 116.61853027 C-7.04692824 114.26600699 -4.65858678 111.92784285 -2.26953125 109.58984375 C-0.64881929 107.98921255 0.97098227 106.38765898 2.58984375 104.78515625 C6.5429165 100.87598702 10.50720738 96.97848599 14.48046875 93.08984375 C12.01584392 89.33590245 9.57857933 85.96551281 6.48046875 82.71484375 C-5.92527514 69.12760044 -16.43633979 53.49811467 -25.51953125 37.52734375 C-25.89360107 36.8725 -26.2676709 36.21765625 -26.65307617 35.54296875 C-30.56898658 28.50394517 -33.13280118 21.77975985 -30.8671875 13.7890625 C-28.33864808 7.3320627 -24.50992889 3.60552922 -18.72265625 -0.04296875 C-13.14377853 -2.23890998 -5.59573814 -2.02140618 0 0 Z " fill="#000000" transform="translate(73.51953125,192.91015625)"/>
</svg>
